<svg id="Layer_1" data-name="Layer 1" xmlns="http://www.w3.org/2000/svg" viewBox="0 0 180 180"><title>Farmers</title><path d="M89.866,44.651A38.9,38.9,0,0,0,51.148,83.1H89.866Z" fill="#002a8c"/><path d="M51.881,83.1a67.523,67.523,0,0,1,10.975-3.956,56.216,56.216,0,0,0,7.651-2.335s-3.136-4.086-6.016-7.978-5.215-7.9-5.215-7.9,4.042.829,9.5,2.569l9.029,2.88s-.039-5.41-.039-10.236S78.19,47,78.19,47a76.622,76.622,0,0,1,5.76,7.277c3.017,4.306,5.916,8.446,5.916,8.446V83.1Z" fill="#afc5ee"/><path d="M66.195,79.018c2.959,2.1,4.826,3.436,5.72,4.08H89.866V51.814s-1.927,4.133-3.133,7.383-2.4,6.853-2.4,6.853S81.849,64.159,78.482,62s-7.028-4.2-7.028-4.2.84,4.667,1.91,8.344,2.08,6.618,2.08,6.618l-7.436.09a45.415,45.415,0,0,0-8.07.635A31.513,31.513,0,0,0,66.195,79.018Z" fill="#fff"/><path d="M89.866,66.3H77.8s-.039,7.356,3.308,13.271a20.1,20.1,0,0,0,8.757,8.173Z" fill="#d20031"/><path d="M89.866,44.651A38.894,38.894,0,0,1,128.583,83.1H89.866Z" fill="#002a8c"/><path d="M127.851,83.1a67.523,67.523,0,0,0-10.975-3.956,56.14,56.14,0,0,1-7.651-2.335s3.136-4.086,6.016-7.978,5.215-7.9,5.215-7.9-4.042.829-9.5,2.569l-9.029,2.88s.039-5.41.039-10.236S101.542,47,101.542,47a76.622,76.622,0,0,0-5.76,7.277c-3.017,4.306-5.916,8.446-5.916,8.446V83.1Z" fill="#afc5ee"/><path d="M113.537,79.018c-2.96,2.1-4.826,3.436-5.72,4.08H89.866V51.814S91.792,55.947,93,59.2s2.4,6.853,2.4,6.853S97.883,64.159,101.25,62s7.028-4.2,7.028-4.2-.84,4.667-1.911,8.344-2.079,6.618-2.079,6.618l7.436.09a45.415,45.415,0,0,1,8.07.635A31.513,31.513,0,0,1,113.537,79.018Z" fill="#fff"/><path d="M89.866,66.3h12.065s.039,7.356-3.308,13.271a20.1,20.1,0,0,1-8.757,8.173Z" fill="#d20031"/><path d="M48.305,85.9l.041-2.843A41.726,41.726,0,0,1,60.7,53.917a41.276,41.276,0,0,1,58.33,0,41.726,41.726,0,0,1,12.355,29.14l.041,2.843Z" fill="#fff"/><path d="M89.866,44.651A38.9,38.9,0,0,0,51.148,83.1h77.435A38.894,38.894,0,0,0,89.866,44.651Z" fill="#002a8c"/><path d="M116.876,79.142a56.14,56.14,0,0,1-7.651-2.335s3.136-4.086,6.016-7.978,5.215-7.9,5.215-7.9-4.042.829-9.5,2.569l-9.029,2.88s.039-5.41.039-10.236S101.542,47,101.542,47a76.622,76.622,0,0,0-5.76,7.277c-3.017,4.306-5.916,8.446-5.916,8.446s-2.9-4.14-5.916-8.446A76.622,76.622,0,0,0,78.19,47s-.428,4.32-.428,9.145.039,10.236.039,10.236L68.772,63.5c-5.454-1.74-9.5-2.569-9.5-2.569s2.335,4.009,5.215,7.9,6.016,7.978,6.016,7.978a56.216,56.216,0,0,1-7.651,2.335A67.523,67.523,0,0,0,51.881,83.1h75.97A67.523,67.523,0,0,0,116.876,79.142Z" fill="#afc5ee"/><path d="M111.724,72.851l-7.436-.09s1.009-2.94,2.079-6.618,1.911-8.344,1.911-8.344-3.662,2.04-7.028,4.2S95.4,66.05,95.4,66.05s-1.2-3.6-2.4-6.853-3.133-7.383-3.133-7.383-1.927,4.133-3.133,7.383-2.4,6.853-2.4,6.853S81.849,64.159,78.482,62s-7.028-4.2-7.028-4.2.84,4.667,1.91,8.344,2.08,6.618,2.08,6.618l-7.436.09a45.415,45.415,0,0,0-8.07.635,31.513,31.513,0,0,0,6.257,5.532c2.959,2.1,4.826,3.436,5.72,4.08h35.9c.894-.644,2.76-1.984,5.72-4.08a31.513,31.513,0,0,0,6.257-5.532A45.415,45.415,0,0,0,111.724,72.851Z" fill="#fff"/><path d="M89.866,66.3h12.065s.039,7.356-3.308,13.271a20.1,20.1,0,0,1-8.757,8.173Z" fill="#d20031"/><path d="M89.866,66.3H77.8s-.039,7.356,3.308,13.271a20.1,20.1,0,0,0,8.757,8.173Z" fill="#ff1331"/><path d="M0,93.44H14.765l-1.1,3.269H4.206v5.682h8.757v3.425H4.206v8.8H0Z" fill="#002c8d"/><path d="M28.193,93.44h4.285l8.235,21.172H36.125l-1.7-4.373H25.948l-1.57,4.373h-4.42Zm-1.228,13.577h6.447l-3.076-8.143Z" fill="#002c8d"/><path d="M50.352,93.44H55.98c8.644,0,9.874,3.395,9.874,6.324,0,3.024-2.33,5.034-4.453,5.938l6.319,8.91H62.575l-6.019-8.319-1.728,0,.021,8.317h-4.5Zm6.808,9.879c2.059,0,4.368-.841,4.368-3.428,0-1.963-.74-3.095-4.665-3.095H54.785l.043,6.523Z" fill="#002c8d"/><path d="M138.308,93.44h5.629c8.643,0,9.874,3.395,9.874,6.324,0,3.024-2.331,5.034-4.454,5.938l6.319,8.91h-5.145l-6.018-8.319-1.729,0,.021,8.317h-4.5Zm6.808,9.879c2.06,0,4.369-.841,4.369-3.428,0-1.963-.741-3.095-4.665-3.095h-2.078l.042,6.523Z" fill="#002c8d"/><path d="M78.73,93.44h4.683l6.166,13.883L95.5,93.44h4.515l1.514,21.172H97.171l-.825-13.351L90.5,114.612H88.32l-5.8-13.415-1,13.415H77.544Z" fill="#002c8d"/><path d="M112.945,93.44h14.309l-1.21,3.492h-8.755v4.778h8.659v3.56h-8.659v5.645h9.621v3.7H112.945Z" fill="#002c8d"/><path d="M166.186,109.241a7.869,7.869,0,0,0,5.581,2.024c2.744,0,3.954-.458,3.954-2.491,0-4.4-10.508-1.6-10.508-9.613,0-3.08,2.514-6.207,7.811-6.207a11.923,11.923,0,0,1,5.538,1.264l-.117,4.126a9.173,9.173,0,0,0-5.254-1.868c-2.82,0-3.7.319-3.7,2.257,0,4.4,10.506,1.751,10.506,9.886,0,3.683-2.878,6.277-8.348,6.277a12.8,12.8,0,0,1-7.356-2.308Z" fill="#002c8d"/><path d="M174.838,89.019a1.356,1.356,0,0,0,.71.224c.293,0,.542-.124.542-.363,0-.567-1.292-.534-1.292-1.3,0-.363.318-.65.884-.65a2.471,2.471,0,0,1,.693.112l-.086.287a1.826,1.826,0,0,0-.619-.126c-.3,0-.534.115-.534.343,0,.579,1.292.515,1.292,1.307,0,.433-.4.657-.892.657a1.53,1.53,0,0,1-.787-.209Z" fill="#002c8d"/><path d="M177.08,86.98h.481l.82,2.057.831-2.057h.481l.1,2.49h-.326l-.086-2.117-.872,2.117h-.253l-.872-2.143-.073,2.143h-.327Z" fill="#002c8d"/><path d="M100.1,126.08h2.394l4.6,11.831H104.53l-.947-2.443h-4.74l-.877,2.443H95.5Zm-.686,7.587h3.6l-1.719-4.55Z" fill="#ff1331"/><path d="M82.549,126.03H85.6c4.686,0,5.353,1.913,5.353,3.564a3.776,3.776,0,0,1-2.415,3.347l3.426,5.022h-2.79l-3.262-4.689h-.937l.011,4.688H82.549ZM86.24,131.6c1.116,0,2.368-.474,2.368-1.932,0-1.107-.4-1.745-2.529-1.745H84.953l.023,3.677Z" fill="#ff1331"/><path d="M142.264,126.028h8.066L149.648,128h-4.936v2.693h4.882V132.7h-4.882v3.182h5.424v2.084h-7.872Z" fill="#ff1331"/><path d="M54.069,134.99a4.561,4.561,0,0,0,3.192,1.126c1.57,0,2.262-.255,2.262-1.386,0-2.446-6.01-.887-6.01-5.348,0-1.713,1.437-3.453,4.468-3.453a6.972,6.972,0,0,1,3.167.7l-.067,2.3a5.326,5.326,0,0,0-3.005-1.04c-1.613,0-2.115.178-2.115,1.256,0,2.447,6.01.974,6.01,5.5,0,2.049-1.647,3.492-4.775,3.492a7.449,7.449,0,0,1-4.208-1.284Z" fill="#ff1331"/><path d="M29.749,126.054h2.527v11.909H29.749Z" fill="#ff1331"/><path d="M38.2,126.1h2.005l5.721,7.852V126.1h2.218v11.861H46l-5.643-7.706v7.706H38.2Z" fill="#ff1331"/><path d="M111.621,126.1h2.005l5.721,7.852V126.1h2.218v11.861h-2.141l-5.643-7.706v7.706h-2.16Z" fill="#ff1331"/><path d="M67.175,126.054h2.4v6.253c0,2.479.5,3.58,2.4,3.58s2.375-1.136,2.375-3.474v-6.359h2.407v7.665c0,3.082-2.161,4.29-4.8,4.29s-4.783-.818-4.783-4.042Z" fill="#ff1331"/><path d="M132.992,125.913a7.758,7.758,0,0,1,3.914,1.009l-.831,2.02a5.491,5.491,0,0,0-3.295-1.024c-3.117,0-3.786,2.089-3.786,4.5,0,2.693.978,3.7,3.741,3.7a4.483,4.483,0,0,0,2.939-.846l1.374,1.54a7.236,7.236,0,0,1-4.251,1.346,5.88,5.88,0,0,1-6.146-6.039A6.037,6.037,0,0,1,132.992,125.913Z" fill="#ff1331"/></svg>