<svg width="176" height="96" viewBox="0 0 176 96" fill="none" xmlns="http://www.w3.org/2000/svg">
<g clip-path="url(#clip0_2683_4393)">
<path fill-rule="evenodd" clip-rule="evenodd" d="M48.2276 70.2509C47.5871 70.2509 47 69.6686 47 69.0335V27.2174C47 26.5822 47.5871 26 48.2276 26H53.6182C54.2587 26 54.8458 26.5822 54.8458 27.2174V54.5831L63.172 45.7435C63.5989 45.373 64.0793 45.0025 64.7731 45.0025H70.484C71.5515 45.0025 71.9251 46.114 71.2846 46.8551L61.8376 56.3828L73.1527 68.4512C73.7931 69.1393 73.4195 70.198 72.3521 70.198H65.467C65.0934 70.198 64.5597 69.9333 64.3995 69.6686L54.7924 58.3413V69.0335C54.7924 69.6686 54.2053 70.2509 53.5649 70.2509H48.2276ZM85.4818 36.11C85.4818 38.4919 83.507 40.4503 81.0518 40.4503C78.6501 40.4503 76.7287 38.4919 76.7287 36.11C76.7287 33.728 78.6501 31.7696 81.0518 31.7696C83.507 31.7696 85.4818 33.728 85.4818 36.11ZM91.1927 69.1393C91.1927 69.7745 91.7798 70.3568 92.4203 70.3568H97.1171C98.3446 70.3568 98.7182 70.0392 98.7182 69.1393V55.2183C99.3587 53.5245 101.387 51.2484 104.696 51.2484C107.738 51.2484 109.446 53.3127 109.446 56.5945V69.0864C109.446 69.7216 109.927 70.3038 110.674 70.3038H115.851C116.491 70.3038 117.078 69.7216 117.078 69.0864V56.965C117.078 50.4015 113.823 44.3673 105.763 44.3673C100.853 44.3673 97.7575 47.0668 96.7968 48.0725L95.8895 45.7435C95.676 45.3201 95.3558 45.0025 94.822 45.0025H92.3669C91.7264 45.0025 91.1393 45.5318 91.1393 46.2199V69.1393H91.1927ZM77.2624 69.0335C77.2624 69.6686 77.8495 70.2509 78.49 70.2509H83.7739C84.4143 70.2509 85.0014 69.6686 85.0014 69.0335V46.167C85.0014 45.4789 84.4143 44.9495 83.7739 44.9495H78.49C77.8495 44.9495 77.2624 45.4789 77.2624 46.167V69.0335ZM125.565 70.7273C128.02 70.7273 129.995 68.7688 129.995 66.3869C129.995 64.005 128.02 62.0465 125.565 62.0465C123.163 62.0465 121.242 64.005 121.242 66.3869C121.242 68.7688 123.11 70.7273 125.565 70.7273Z" fill="#FBC02D"/>
</g>
<defs>
<clipPath id="clip0_2683_4393">
<rect width="82.9947" height="44.7273" fill="white" transform="translate(47 26)"/>
</clipPath>
</defs>
</svg>
