<svg width="400" height="220" viewBox="0 0 400 220" fill="none" xmlns="http://www.w3.org/2000/svg">
<mask id="mask0_1159_445" style="mask-type:luminance" maskUnits="userSpaceOnUse" x="20" y="57" width="360" height="106">
<path d="M20 57H380V162.377H20V57Z" fill="white"/>
</mask>
<g mask="url(#mask0_1159_445)">
<path d="M372.387 155.762H373.567C374.57 155.762 375.514 155.704 375.514 154.591C375.514 153.655 374.689 153.479 373.921 153.479H372.446V155.762H372.387ZM371.265 152.542H374.099C375.81 152.542 376.637 153.187 376.637 154.591C376.637 155.88 375.809 156.464 374.689 156.581L376.813 159.801H375.575L373.567 156.699H372.387V159.801H371.265V152.542ZM373.745 161.441C376.637 161.441 378.88 159.157 378.88 156.113C378.88 153.128 376.637 150.844 373.745 150.844C370.794 150.844 368.551 153.128 368.551 156.113C368.551 159.157 370.794 161.441 373.745 161.441ZM373.745 149.967C377.167 149.967 380 152.66 380 156.172C380 159.742 377.108 162.436 373.745 162.436C370.323 162.436 367.43 159.742 367.43 156.172C367.43 152.66 370.262 149.967 373.745 149.967Z" fill="#003DA6"/>
<path d="M368.729 81.3542H222.72L124.578 57L20 85.2167L22.6555 95.0512L124.576 67.5944L221.363 91.5393H368.729V81.3542Z" fill="#DB0032"/>
<path d="M104.984 107.99H95.5413V112.205H103.037V117.592H95.5413V122.51H104.926V127.838H88.7559V102.663H104.986L104.984 107.99ZM142.517 102.663H135.73V127.894H142.517V102.663ZM319.095 102.663H312.308V127.894H319.095V102.663ZM241.489 127.838H234.702V102.663H250.932V107.99H241.489V112.205H248.984V117.592H241.489V127.838ZM325.883 127.838H342.111V121.456H332.729V102.665H325.883V127.838ZM209.855 102.663V116.362L203.068 102.663H195.397V127.835H202.006V114.195L208.852 127.835H216.524V102.663H209.855ZM41.8952 117.474L40.0062 111.855L38.1172 117.474H41.8952ZM43.6062 102.663L52.1633 127.835H45.1999L43.4889 122.858H36.4062L34.6952 127.835H28.2617L36.8188 102.663H43.6062ZM181.941 117.474L180.052 111.855L178.163 117.474H181.941ZM183.652 102.663L192.268 127.894H185.305L183.594 122.917H176.511L174.8 127.894H168.366L176.924 102.663H183.652ZM265.095 117.474L263.206 111.855L261.317 117.474H265.095ZM266.806 102.663L275.363 127.894H268.4L266.689 122.917H259.606L257.895 127.894H251.462L260.079 102.663H266.806ZM117.554 113.377V108.341H120.327C120.976 108.341 121.684 108.341 122.274 108.691C122.924 109.101 123.336 109.98 123.336 110.858C123.336 113.142 121.566 113.433 120.09 113.433H117.552V113.375L117.554 113.377ZM120.683 119.582L123.811 127.835H130.362L126.467 117.59C129.064 116.185 130.362 114.078 130.362 110.623C130.362 108.047 129.476 105.704 127.648 104.3C125.996 103.011 123.87 102.661 121.983 102.661H110.77V127.833H117.558V119.58H120.687L120.683 119.582ZM356.216 102.663L351.317 111.913L346.419 102.663H339.751L347.954 118.06V127.835H354.741V118.06L362.944 102.663H356.216ZM76.2428 127.838V116.481L71.6984 127.838H66.7999L62.3141 116.481V127.838H55.7046V102.663H63.2586L69.2775 117.766L75.2377 102.663H82.7916V127.835H76.2408L76.2428 127.838ZM298.852 127.838V116.481L294.366 127.838H289.468L284.984 116.481V127.838H278.373V102.663H285.929L291.948 117.766L297.908 102.663H305.462V127.835L298.852 127.838ZM163.351 109.747C162.348 108.752 161.108 108.167 159.751 108.167C156.622 108.167 153.966 111.387 153.966 115.251C153.966 119.116 156.622 122.336 159.751 122.336C161.108 122.336 162.348 121.75 163.351 120.755L166.892 125.088C164.827 127.254 162.052 128.599 159.043 128.599C152.609 128.599 147.416 122.627 147.416 115.31C147.416 107.992 152.609 102.02 159.043 102.02C162.111 102.02 164.827 103.368 166.892 105.532L163.351 109.747ZM123.751 149.908C124.695 150.025 124.99 150.494 124.99 150.962C124.99 151.724 124.4 152.25 122.276 152.25C121.215 152.25 120.446 152.133 119.975 151.9C119.504 151.667 119.267 151.314 119.267 150.787H111.005C111.005 155.471 116.789 156.174 122.042 156.174C129.715 156.174 133.137 154.36 133.137 150.437C133.137 147.744 131.013 146.28 127.589 145.812L119.445 144.7C118.796 144.641 118.559 144.349 118.559 143.881C118.559 143.237 119.267 142.71 121.273 142.71C122.04 142.71 122.808 142.827 123.397 143.06C124.046 143.295 124.459 143.705 124.459 144.349H132.425C132.188 140.953 129.001 139.139 121.33 139.139C115.724 139.139 111.296 140.252 111.296 144.408C111.296 146.633 112.653 148.447 116.017 148.915L123.749 149.91L123.751 149.908ZM144.76 149.557C144.76 154.65 148.773 156.172 155.797 156.172C162.821 156.172 166.833 154.65 166.833 149.557V139.664H159.987V149.324C159.987 151.373 157.981 152.017 155.797 152.017C153.554 152.017 151.606 151.373 151.606 149.324V139.664H144.76V149.557ZM247.154 155.645H253.705V147.742H253.763L261.022 155.645H268.517V139.662H261.966V147.448H261.908L255.003 139.662H247.213V155.645H247.154ZM77.1287 155.645H83.6795V147.742H83.7381L90.9968 155.645H98.4921V139.662H91.9413V147.448H91.8826L84.9779 139.662H77.1287V155.645ZM316.027 155.645H335.326V151.78H322.873V149.614H334.5V145.75H322.873V143.585H335.326V139.721H316.027V155.645ZM295.904 149.44C295.372 151.371 294.073 152.192 291.891 152.192C289.411 152.192 287.7 150.903 287.7 147.685C287.7 144.467 289.47 143.178 292.245 143.178C294.9 143.178 295.726 144.817 295.904 145.989H303.635C302.75 139.666 296.375 139.198 292.304 139.198C288.172 139.198 280.5 139.49 280.5 147.746C280.5 156.001 288.172 156.293 292.304 156.293C296.494 156.293 299.091 155.649 300.743 154.48C302.454 153.308 303.221 151.61 303.635 149.503H295.904V149.444V149.44ZM212.218 155.645H219.476L220.186 153.831H227.326L228.035 155.645H235.294L227.916 139.662H219.537L212.218 155.645ZM223.845 144.521L221.778 149.908H225.91L223.845 144.521ZM55.7067 155.645H62.4941V139.662H55.7067V155.645ZM190.676 146.455C192.153 146.455 193.981 146.278 193.981 144.815C193.981 144.23 193.568 143.703 192.919 143.47C192.329 143.235 191.621 143.235 190.972 143.235H186.722V146.455H190.676ZM191.208 150.378L194.396 155.588H201.124L197.171 149.089C199.826 148.212 201.124 146.864 201.124 144.639C201.124 143 200.239 141.537 198.41 140.659C196.758 139.84 194.574 139.605 192.626 139.605H179.937V155.588H186.724V150.378H191.208ZM28.2637 132.932H362.768V162.379H28.2617V132.93L28.2637 132.932Z" fill="#003DA6"/>
</g>
</svg>
